<svg data-v-423bf9ae="" xmlns="http://www.w3.org/2000/svg" viewBox="0 0 618 90" class="iconLeft"><!----><!----><!----><g data-v-423bf9ae="" id="9d3fc2b1-89df-4999-8669-10b8394641f6" fill="white" transform="matrix(5.277044907995591,0,0,5.277044907995591,91.86488932767338,-3.205803515283847)"><path d="M0.42 4.78L0.42 4.78L0.42 4.35L0.42 4.35Q0.42 4.14 0.63 4.14L0.63 4.14L7.64 4.14L7.64 4.14Q7.83 4.14 7.91 4.07L7.91 4.07L7.99 4.00L7.99 4.00Q8.07 3.95 8.11 3.95L8.11 3.95L8.11 3.95Q8.22 3.95 8.29 4.07L8.29 4.07L9.40 5.97L9.40 5.97Q9.44 6.04 9.44 6.10L9.44 6.10L9.44 6.10Q9.44 6.19 9.32 6.27L9.32 6.27L8.74 6.58L8.74 6.58Q8.67 6.62 8.61 6.62L8.61 6.62L8.61 6.62Q8.52 6.62 8.44 6.51L8.44 6.51L8.39 6.43L8.39 6.43Q7.65 5.14 5.89 5.14L5.89 5.14L3.81 5.14L3.81 8.56L5.12 8.56L5.12 8.56Q6.41 8.56 6.45 7.62L6.45 7.62L6.45 7.53L6.45 7.53Q6.45 7.31 6.66 7.31L6.66 7.31L7.08 7.31L7.08 7.31Q7.29 7.31 7.29 7.53L7.29 7.53L7.29 10.71L7.29 10.71Q7.29 10.92 7.08 10.92L7.08 10.92L6.66 10.92L6.66 10.92Q6.45 10.92 6.45 10.71L6.45 10.71L6.45 10.62L6.45 10.62Q6.41 9.68 5.12 9.68L5.12 9.68L3.90 9.68L3.90 12.47L3.90 12.47Q3.90 13.75 4.84 13.80L4.84 13.80L4.94 13.80L4.94 13.80Q5.15 13.80 5.15 14.01L5.15 14.01L5.15 14.43L5.15 14.43Q5.15 14.64 4.94 14.64L4.94 14.64L0.63 14.64L0.63 14.64Q0.42 14.64 0.42 14.43L0.42 14.43L0.42 14.01L0.42 14.01Q0.42 13.80 0.63 13.80L0.63 13.80L0.72 13.80L0.72 13.80Q1.66 13.75 1.66 12.47L1.66 12.47L1.66 6.32L1.66 6.32Q1.66 4.98 0.64 4.98L0.64 4.98L0.63 4.98L0.63 4.98Q0.42 4.98 0.42 4.78ZM9.13 14.43L9.13 14.43L9.13 14.01L9.13 14.01Q9.13 13.80 9.34 13.80L9.34 13.80L9.36 13.80L9.36 13.80Q9.86 13.79 10.12 13.43L10.12 13.43L10.12 13.43Q10.38 13.07 10.38 12.52L10.38 12.52L10.38 12.52Q10.38 12.50 10.38 12.47L10.38 12.47L10.38 10.99L10.38 10.99Q10.38 10.70 10.35 10.49L10.35 10.49L10.35 10.49Q10.33 10.29 10.25 10.05L10.25 10.05L10.25 10.05Q10.18 9.81 10.00 9.67L10.00 9.67L10.00 9.67Q9.82 9.53 9.55 9.50L9.55 9.50L9.55 9.50Q9.37 9.48 9.39 9.32L9.39 9.32L9.39 8.85L9.39 8.85Q9.39 8.76 9.43 8.73L9.43 8.73L9.43 8.73Q9.47 8.70 9.58 8.66L9.58 8.66L9.58 8.66Q11.38 8.06 12.16 7.24L12.16 7.24L12.16 7.24Q12.20 7.21 12.22 7.21L12.22 7.21L12.26 7.21L12.26 7.21Q12.27 7.21 12.28 7.23L12.28 7.23L12.28 12.47L12.28 12.47Q12.28 13.06 12.55 13.43L12.55 13.43L12.55 13.43Q12.82 13.80 13.32 13.80L13.32 13.80L13.35 13.80L13.35 13.80Q13.56 13.80 13.56 14.01L13.56 14.01L13.56 14.43L13.56 14.43Q13.56 14.53 13.49 14.59L13.49 14.59L13.49 14.59Q13.43 14.64 13.32 14.64L13.32 14.64L9.37 14.64L9.37 14.64Q9.26 14.64 9.19 14.59L9.19 14.59L9.19 14.59Q9.13 14.53 9.13 14.43ZM10.25 5.33L10.25 5.33L10.25 5.33Q10.25 4.98 10.60 4.63L10.60 4.63L10.60 4.63Q10.95 4.29 11.31 4.29L11.31 4.29L11.31 4.29Q11.66 4.29 12.00 4.63L12.00 4.63L12.00 4.63Q12.36 4.99 12.36 5.33L12.36 5.33L12.36 5.33Q12.36 5.68 12.00 6.04L12.00 6.04L12.00 6.04Q11.66 6.38 11.31 6.38L11.31 6.38L11.31 6.38Q10.95 6.38 10.60 6.04L10.60 6.04L10.60 6.04Q10.25 5.69 10.25 5.33ZM13.74 8.27L13.74 8.27L13.74 7.85L13.74 7.85Q13.74 7.64 13.95 7.64L13.95 7.64L14.96 7.64L14.96 6.71L14.96 6.71Q14.96 6.53 15.09 6.45L15.09 6.45L15.09 6.45Q16.06 5.93 16.81 5.30L16.81 5.30L16.81 5.30Q16.84 5.26 16.87 5.26L16.87 5.26L16.89 5.26L16.89 5.26Q16.93 5.26 16.93 5.28L16.93 5.28L16.93 7.64L18.80 7.64L18.80 7.64Q19.01 7.64 19.01 7.85L19.01 7.85L19.01 8.46L19.01 8.46Q19.01 8.67 18.80 8.67L18.80 8.67L16.93 8.67L16.93 12.67L16.93 12.67Q16.93 13.62 17.51 13.62L17.51 13.62L17.51 13.62Q17.87 13.62 18.51 13.22L18.51 13.22L18.53 13.21L18.53 13.21Q18.59 13.17 18.65 13.17L18.65 13.17L18.65 13.17Q18.74 13.17 18.81 13.28L18.81 13.28L19.04 13.63L19.04 13.63Q19.08 13.69 19.08 13.75L19.08 13.75L19.08 13.75Q19.08 13.84 18.97 13.92L18.97 13.92L18.55 14.18L18.55 14.18Q17.52 14.82 16.59 14.82L16.59 14.82L16.59 14.82Q16.25 14.82 15.97 14.71L15.97 14.71L15.97 14.71Q15.69 14.61 15.46 14.37L15.46 14.37L15.46 14.37Q15.22 14.13 15.09 13.70L15.09 13.70L15.09 13.70Q14.96 13.27 14.96 12.67L14.96 12.67L14.96 10.08L14.96 10.08Q14.96 9.86 14.96 9.74L14.96 9.74L14.96 9.74Q14.96 9.63 14.94 9.43L14.94 9.43L14.94 9.43Q14.92 9.24 14.89 9.13L14.89 9.13L14.89 9.13Q14.85 9.02 14.78 8.88L14.78 8.88L14.78 8.88Q14.70 8.74 14.60 8.66L14.60 8.66L14.60 8.66Q14.49 8.59 14.33 8.54L14.33 8.54L14.33 8.54Q14.16 8.48 13.95 8.48L13.95 8.48L13.95 8.48Q13.74 8.48 13.74 8.27ZM19.54 10.81L19.54 10.81L19.54 10.81Q19.61 9.97 19.95 9.31L19.95 9.31L19.95 9.31Q20.29 8.65 20.79 8.26L20.79 8.26L20.79 8.26Q21.29 7.88 21.88 7.68L21.88 7.68L21.88 7.68Q22.46 7.48 23.08 7.48L23.08 7.48L23.34 7.49L23.34 7.49Q24.51 7.57 25.12 8.11L25.12 8.11L25.12 8.11Q25.72 8.64 25.88 9.41L25.88 9.41L25.89 9.47L25.89 9.47Q25.89 9.61 25.72 9.65L25.72 9.65L24.12 10.08L24.12 10.08Q24.05 10.10 23.99 10.10L23.99 10.10L23.99 10.10Q23.93 10.10 23.91 10.08L23.91 10.08L23.91 10.08Q23.88 10.06 23.88 10.01L23.88 10.01L23.90 9.86L23.90 9.86Q23.91 9.79 23.91 9.71L23.91 9.71L23.91 9.71Q23.91 9.21 23.65 8.93L23.65 8.93L23.65 8.93Q23.37 8.60 22.76 8.59L22.76 8.59L22.76 8.59Q22.13 8.59 21.78 9.09L21.78 9.09L21.78 9.09Q21.43 9.58 21.36 10.36L21.36 10.36L21.36 10.36Q21.33 10.72 21.33 10.89L21.33 10.89L21.33 10.89Q21.33 11.44 21.44 11.90L21.44 11.90L21.44 11.90Q21.54 12.37 21.76 12.75L21.76 12.75L21.76 12.75Q21.97 13.13 22.35 13.35L22.35 13.35L22.35 13.35Q22.74 13.58 23.24 13.58L23.24 13.58L23.24 13.58Q23.33 13.58 23.51 13.56L23.51 13.56L23.51 13.56Q23.94 13.52 24.35 13.27L24.35 13.27L24.35 13.27Q24.77 13.01 25.07 12.56L25.07 12.56L25.07 12.56Q25.14 12.46 25.23 12.46L25.23 12.46L25.23 12.46Q25.30 12.46 25.35 12.50L25.35 12.50L25.72 12.76L25.72 12.76Q25.89 12.87 25.81 13.04L25.81 13.04L25.81 13.04Q25.09 14.56 23.26 14.75L23.26 14.75L23.26 14.75Q23.06 14.77 22.87 14.77L22.87 14.77L22.87 14.77Q22.11 14.77 21.45 14.43L21.45 14.43L21.45 14.43Q20.79 14.10 20.36 13.54L20.36 13.54L20.36 13.54Q19.92 12.99 19.70 12.27L19.70 12.27L19.70 12.27Q19.53 11.71 19.53 11.13L19.53 11.13L19.53 11.13Q19.53 10.97 19.54 10.81ZM26.17 14.43L26.17 14.43L26.17 14.01L26.17 14.01Q26.17 13.80 26.37 13.80L26.37 13.80L26.41 13.80L26.41 13.80Q26.91 13.79 27.17 13.43L27.17 13.43L27.17 13.43Q27.43 13.07 27.43 12.52L27.43 12.52L27.43 12.52Q27.43 12.50 27.43 12.47L27.43 12.47L27.43 7.23L27.43 7.23Q27.43 6.88 27.40 6.66L27.40 6.66L27.40 6.66Q27.38 6.43 27.30 6.18L27.30 6.18L27.30 6.18Q27.22 5.93 27.04 5.78L27.04 5.78L27.04 5.78Q26.87 5.64 26.59 5.61L26.59 5.61L26.59 5.61Q26.41 5.59 26.43 5.43L26.43 5.43L26.43 4.96L26.43 4.96Q26.43 4.87 26.47 4.84L26.47 4.84L26.47 4.84Q26.52 4.81 26.63 4.77L26.63 4.77L26.63 4.77Q28.19 4.25 29.26 3.47L29.26 3.47L29.26 3.47Q29.31 3.45 29.33 3.45L29.33 3.45L29.36 3.45L29.36 3.45Q29.37 3.45 29.37 3.47L29.37 3.47L29.37 8.85L29.37 8.85Q29.48 8.63 29.66 8.42L29.66 8.42L29.66 8.42Q29.85 8.20 30.14 7.97L30.14 7.97L30.14 7.97Q30.42 7.75 30.83 7.60L30.83 7.60L30.83 7.60Q31.24 7.46 31.69 7.46L31.69 7.46L31.69 7.46Q32.27 7.46 32.71 7.60L32.71 7.60L32.71 7.60Q33.14 7.75 33.40 7.97L33.40 7.97L33.40 7.97Q33.65 8.20 33.81 8.54L33.81 8.54L33.81 8.54Q33.96 8.89 34.02 9.24L34.02 9.24L34.02 9.24Q34.07 9.58 34.07 10.02L34.07 10.02L34.07 12.47L34.07 12.47Q34.07 13.06 34.34 13.43L34.34 13.43L34.34 13.43Q34.60 13.80 35.10 13.80L35.10 13.80L35.14 13.80L35.14 13.80Q35.34 13.80 35.34 14.01L35.34 14.01L35.34 14.43L35.34 14.43Q35.34 14.64 35.14 14.64L35.14 14.64L31.34 14.64L31.34 14.64Q31.12 14.64 31.12 14.43L31.12 14.43L31.12 14.01L31.12 14.01Q31.12 13.80 31.34 13.80L31.34 13.80L31.37 13.80L31.37 13.80Q31.75 13.81 31.93 13.44L31.93 13.44L31.93 13.44Q32.10 13.10 32.10 12.55L32.10 12.55L32.10 12.55Q32.10 12.51 32.10 12.47L32.10 12.47L32.10 10.36L32.10 10.36Q32.10 10.32 32.10 10.23L32.10 10.23L32.10 10.23Q32.10 9.95 32.10 9.81L32.10 9.81L32.10 9.81Q32.09 9.68 32.07 9.46L32.07 9.46L32.07 9.46Q32.04 9.24 31.98 9.14L31.98 9.14L31.98 9.14Q31.92 9.03 31.81 8.91L31.81 8.91L31.81 8.91Q31.70 8.79 31.52 8.74L31.52 8.74L31.52 8.74Q31.34 8.70 31.09 8.70L31.09 8.70L31.09 8.70Q30.56 8.70 30.06 9.00L30.06 9.00L30.06 9.00Q29.57 9.31 29.39 9.75L29.39 9.75L29.39 12.47L29.39 12.47Q29.39 13.06 29.65 13.43L29.65 13.43L29.65 13.43Q29.92 13.80 30.42 13.80L30.42 13.80L30.45 13.80L30.45 13.80Q30.66 13.80 30.66 14.01L30.66 14.01L30.66 14.43L30.66 14.43Q30.66 14.64 30.45 14.64L30.45 14.64L26.37 14.64L26.37 14.64Q26.17 14.64 26.17 14.43ZM39.40 14.43L39.40 14.43L39.40 14.01L39.40 14.01Q39.40 13.80 39.61 13.80L39.61 13.80L39.61 13.80Q40.11 13.80 40.37 13.43L40.37 13.43L40.37 13.43Q40.63 13.06 40.63 12.47L40.63 12.47L40.63 5.33L40.63 5.33Q40.24 4.98 39.75 4.98L39.75 4.98L39.75 4.98Q39.55 4.98 39.55 4.77L39.55 4.77L39.55 4.35L39.55 4.35Q39.55 4.14 39.75 4.14L39.75 4.14L42.18 4.14L42.18 4.14Q42.32 4.14 42.43 4.27L42.43 4.27L48.69 11.40L48.69 6.31L48.69 6.31Q48.69 5.71 48.42 5.35L48.42 5.35L48.42 5.35Q48.15 4.98 47.65 4.98L47.65 4.98L47.65 4.98Q47.44 4.98 47.44 4.77L47.44 4.77L47.44 4.35L47.44 4.35Q47.44 4.14 47.65 4.14L47.65 4.14L51.11 4.14L51.11 4.14Q51.32 4.14 51.32 4.35L51.32 4.35L51.32 4.77L51.32 4.77Q51.32 4.98 51.11 4.98L51.11 4.98L51.11 4.98Q50.61 4.98 50.34 5.35L50.34 5.35L50.34 5.35Q50.09 5.70 50.09 6.25L50.09 6.25L50.09 6.25Q50.09 6.28 50.09 6.31L50.09 6.31L50.09 14.43L50.09 14.43Q50.09 14.64 49.88 14.64L49.88 14.64L48.91 14.64L48.91 14.64Q48.77 14.64 48.66 14.52L48.66 14.52L42.04 6.90L42.04 12.47L42.04 12.47Q42.04 13.06 42.31 13.43L42.31 13.43L42.31 13.43Q42.57 13.80 43.07 13.80L43.07 13.80L43.07 13.80Q43.28 13.80 43.28 14.01L43.28 14.01L43.28 14.43L43.28 14.43Q43.28 14.64 43.07 14.64L43.07 14.64L39.61 14.64L39.61 14.64Q39.40 14.64 39.40 14.43ZM51.31 11.08L51.31 11.08L51.31 11.08Q51.31 10.33 51.50 9.71L51.50 9.71L51.50 9.71Q51.69 9.10 52.01 8.69L52.01 8.69L52.01 8.69Q52.33 8.29 52.76 8.01L52.76 8.01L52.76 8.01Q53.20 7.73 53.67 7.61L53.67 7.61L53.67 7.61Q54.13 7.49 54.65 7.49L54.65 7.49L54.65 7.49Q55.18 7.49 55.65 7.67L55.65 7.67L55.65 7.67Q56.13 7.85 56.46 8.13L56.46 8.13L56.46 8.13Q56.80 8.42 57.04 8.78L57.04 8.78L57.04 8.78Q57.29 9.14 57.40 9.50L57.40 9.50L57.40 9.50Q57.52 9.86 57.52 10.19L57.52 10.19L57.52 10.19Q57.52 10.31 57.41 10.36L57.41 10.36L53.35 12.14L53.35 12.14Q53.61 12.79 54.15 13.22L54.15 13.22L54.15 13.22Q54.69 13.64 55.45 13.64L55.45 13.64L55.45 13.64Q55.92 13.64 56.40 13.38L56.40 13.38L56.40 13.38Q56.88 13.13 57.23 12.61L57.23 12.61L57.23 12.61Q57.27 12.55 57.35 12.55L57.35 12.55L57.35 12.55Q57.44 12.55 57.91 12.82L57.91 12.82L57.91 12.82Q57.96 12.86 57.96 12.93L57.96 12.93L57.96 12.93Q57.96 13.02 57.87 13.18L57.87 13.18L57.87 13.18Q56.99 14.81 55.07 14.81L55.07 14.81L55.07 14.81Q53.94 14.81 53.07 14.30L53.07 14.30L53.07 14.30Q52.21 13.79 51.76 12.94L51.76 12.94L51.76 12.94Q51.31 12.10 51.31 11.08ZM53.39 9.05L53.39 9.05L53.39 9.05Q53.05 9.50 53.05 10.20L53.05 10.20L53.05 10.20Q53.05 10.90 53.18 11.27L53.18 11.27L55.43 10.13L55.43 10.13Q55.43 9.47 55.11 9.03L55.11 9.03L55.11 9.03Q54.79 8.59 54.30 8.59L54.30 8.59L54.30 8.59Q53.74 8.59 53.39 9.05ZM57.93 8.27L57.93 8.27L57.93 7.85L57.93 7.85Q57.93 7.64 58.15 7.64L58.15 7.64L59.16 7.64L59.16 6.71L59.16 6.71Q59.16 6.53 59.29 6.45L59.29 6.45L59.29 6.45Q60.26 5.93 61.00 5.30L61.00 5.30L61.00 5.30Q61.04 5.26 61.07 5.26L61.07 5.26L61.09 5.26L61.09 5.26Q61.12 5.26 61.12 5.28L61.12 5.28L61.12 7.64L62.99 7.64L62.99 7.64Q63.21 7.64 63.21 7.85L63.21 7.85L63.21 8.46L63.21 8.46Q63.21 8.67 62.99 8.67L62.99 8.67L61.13 8.67L61.13 12.67L61.13 12.67Q61.13 13.62 61.71 13.62L61.71 13.62L61.71 13.62Q62.06 13.62 62.71 13.22L62.71 13.22L62.72 13.21L62.72 13.21Q62.78 13.17 62.84 13.17L62.84 13.17L62.84 13.17Q62.93 13.17 63.01 13.28L63.01 13.28L63.23 13.63L63.23 13.63Q63.27 13.69 63.27 13.75L63.27 13.75L63.27 13.75Q63.27 13.84 63.16 13.92L63.16 13.92L62.75 14.18L62.75 14.18Q61.71 14.82 60.79 14.82L60.79 14.82L60.79 14.82Q60.44 14.82 60.16 14.71L60.16 14.71L60.16 14.71Q59.88 14.61 59.65 14.37L59.65 14.37L59.65 14.37Q59.42 14.13 59.29 13.70L59.29 13.70L59.29 13.70Q59.16 13.27 59.16 12.67L59.16 12.67L59.16 10.08L59.16 10.08Q59.16 9.86 59.15 9.74L59.15 9.74L59.15 9.74Q59.15 9.63 59.13 9.43L59.13 9.43L59.13 9.43Q59.12 9.24 59.08 9.13L59.08 9.13L59.08 9.13Q59.04 9.02 58.97 8.88L58.97 8.88L58.97 8.88Q58.90 8.74 58.79 8.66L58.79 8.66L58.79 8.66Q58.69 8.59 58.52 8.54L58.52 8.54L58.52 8.54Q58.36 8.48 58.15 8.48L58.15 8.48L58.15 8.48Q57.93 8.48 57.93 8.27ZM63.50 8.26L63.50 8.26L63.50 7.85L63.50 7.85Q63.50 7.64 63.71 7.64L63.71 7.64L66.94 7.64L66.94 7.64Q67.15 7.64 67.15 7.85L67.15 7.85L67.15 8.26L67.15 8.26Q67.15 8.48 66.94 8.48L66.94 8.48L66.92 8.48L66.92 8.48Q66.45 8.48 66.45 8.89L66.45 8.89L66.45 8.89Q66.45 9.23 66.73 9.81L66.73 9.81L67.85 12.43L69.06 9.45L69.06 9.45Q69.24 9.02 69.24 8.78L69.24 8.78L69.24 8.78Q69.24 8.48 68.95 8.48L68.95 8.48L68.65 8.48L68.65 8.48Q68.46 8.46 68.46 8.26L68.46 8.26L68.46 7.85L68.46 7.85Q68.46 7.64 68.65 7.64L68.65 7.64L72.01 7.64L72.01 7.64Q72.22 7.64 72.22 7.85L72.22 7.85L72.22 8.26L72.22 8.26Q72.22 8.48 72.01 8.48L72.01 8.48L71.85 8.48L71.85 8.48Q71.37 8.48 71.37 8.89L71.37 8.89L71.37 8.89Q71.37 9.23 71.65 9.81L71.65 9.81L72.78 12.43L73.99 9.45L73.99 9.45Q74.17 9.02 74.17 8.78L74.17 8.78L74.17 8.78Q74.17 8.48 73.88 8.48L73.88 8.48L73.60 8.48L73.60 8.48Q73.39 8.48 73.39 8.26L73.39 8.26L73.39 7.85L73.39 7.85Q73.39 7.64 73.60 7.64L73.60 7.64L76.17 7.64L76.17 7.64Q76.37 7.64 76.37 7.85L76.37 7.85L76.37 8.26L76.37 8.26Q76.37 8.48 76.17 8.48L76.17 8.48L75.97 8.48L75.97 8.48Q75.74 8.48 75.56 8.66L75.56 8.66L75.56 8.66Q75.38 8.84 75.15 9.35L75.15 9.35L72.93 14.49L72.93 14.49Q72.86 14.64 72.68 14.64L72.68 14.64L71.94 14.64L71.94 14.64Q71.76 14.64 71.70 14.49L71.70 14.49L69.85 10.21L68.00 14.49L68.00 14.49Q67.93 14.64 67.75 14.64L67.75 14.64L67.01 14.64L67.01 14.64Q66.83 14.64 66.77 14.49L66.77 14.49L64.55 9.36L64.55 9.36Q64.33 8.83 64.17 8.65L64.17 8.65L64.17 8.65Q64.00 8.48 63.75 8.48L63.75 8.48L63.71 8.48L63.71 8.48Q63.50 8.48 63.50 8.26ZM76.48 11.07L76.48 11.07L76.48 11.07Q76.48 10.01 77.04 9.11L77.04 9.11L77.04 9.11Q77.60 8.20 78.57 7.77L78.57 7.77L78.57 7.77Q79.24 7.47 79.99 7.47L79.99 7.47L79.99 7.47Q81.05 7.47 81.97 8.07L81.97 8.07L81.97 8.07Q82.89 8.66 83.34 9.69L83.34 9.69L83.34 9.69Q83.67 10.41 83.67 11.22L83.67 11.22L83.67 11.22Q83.67 12.28 83.11 13.17L83.11 13.17L83.11 13.17Q82.55 14.07 81.57 14.51L81.57 14.51L81.57 14.51Q80.88 14.81 80.15 14.81L80.15 14.81L80.15 14.81Q79.09 14.81 78.17 14.22L78.17 14.22L78.17 14.22Q77.25 13.62 76.80 12.60L76.80 12.60L76.80 12.60Q76.48 11.87 76.48 11.07ZM78.15 10.19L78.15 10.19L78.15 10.19Q78.15 10.96 78.54 11.83L78.54 11.83L78.54 11.83Q78.90 12.63 79.44 13.16L79.44 13.16L79.44 13.16Q79.98 13.69 80.59 13.69L80.59 13.69L80.59 13.69Q80.86 13.69 81.15 13.57L81.15 13.57L81.15 13.57Q82.00 13.20 82.00 12.09L82.00 12.09L82.00 12.09Q82.00 11.33 81.61 10.46L81.61 10.46L81.61 10.46Q81.25 9.65 80.70 9.12L80.70 9.12L80.70 9.12Q80.16 8.59 79.55 8.59L79.55 8.59L79.55 8.59Q79.28 8.59 78.99 8.72L78.99 8.72L78.99 8.72Q78.15 9.08 78.15 10.19ZM84.16 14.43L84.16 14.43L84.16 14.01L84.16 14.01Q84.16 13.80 84.37 13.80L84.37 13.80L84.40 13.80L84.40 13.80Q84.90 13.80 85.16 13.43L85.16 13.43L85.16 13.43Q85.42 13.06 85.42 12.47L85.42 12.47L85.42 10.71L85.42 10.71Q85.42 10.37 85.40 10.14L85.40 10.14L85.40 10.14Q85.37 9.92 85.30 9.67L85.30 9.67L85.30 9.67Q85.22 9.41 85.05 9.27L85.05 9.27L85.05 9.27Q84.87 9.13 84.59 9.10L84.59 9.10L84.59 9.10Q84.42 9.08 84.43 8.92L84.43 8.92L84.43 8.44L84.43 8.44Q84.43 8.29 84.63 8.26L84.63 8.26L84.63 8.26Q85.52 8.11 86.28 7.81L86.28 7.81L86.28 7.81Q87.04 7.50 87.40 7.24L87.40 7.24L87.40 7.24Q87.45 7.21 87.47 7.21L87.47 7.21L87.50 7.21L87.50 7.21Q87.51 7.21 87.51 7.23L87.51 7.23L87.19 9.11L87.19 9.11Q87.56 8.32 88.22 7.89L88.22 7.89L88.22 7.89Q88.88 7.46 89.65 7.46L89.65 7.46L89.65 7.46Q90.34 7.46 90.78 7.84L90.78 7.84L90.78 7.84Q91.23 8.22 91.23 8.91L91.23 8.91L91.23 8.91Q91.23 9.28 91.16 9.49L91.16 9.49L91.16 9.49Q91.10 9.70 90.86 9.80L90.86 9.80L89.55 10.34L89.55 10.34Q89.49 10.36 89.43 10.36L89.43 10.36L89.43 10.36Q89.30 10.36 89.30 10.23L89.30 10.23L89.30 10.23Q89.30 10.16 89.33 10.10L89.33 10.10L89.33 10.10Q89.46 9.79 89.46 9.41L89.46 9.41L89.46 9.41Q89.46 9.04 89.27 8.86L89.27 8.86L89.27 8.86Q89.09 8.68 88.79 8.68L88.79 8.68L88.79 8.68Q88.35 8.68 87.96 9.06L87.96 9.06L87.96 9.06Q87.58 9.44 87.39 9.89L87.39 9.89L87.39 12.47L87.39 12.47Q87.39 13.06 87.66 13.43L87.66 13.43L87.66 13.43Q87.92 13.80 88.42 13.80L88.42 13.80L88.44 13.80L88.44 13.80Q88.66 13.80 88.66 14.01L88.66 14.01L88.66 14.43L88.66 14.43Q88.66 14.64 88.44 14.64L88.44 14.64L84.37 14.64L84.37 14.64Q84.16 14.64 84.16 14.43ZM91.16 14.43L91.16 14.43L91.16 14.01L91.16 14.01Q91.16 13.80 91.37 13.80L91.37 13.80L91.37 13.80Q91.87 13.79 92.13 13.43L92.13 13.43L92.13 13.43Q92.39 13.07 92.39 12.52L92.39 12.52L92.39 12.52Q92.39 12.50 92.39 12.47L92.39 12.47L92.39 7.23L92.39 7.23Q92.39 6.88 92.36 6.66L92.36 6.66L92.36 6.66Q92.34 6.43 92.26 6.18L92.26 6.18L92.26 6.18Q92.19 5.93 92.01 5.78L92.01 5.78L92.01 5.78Q91.83 5.64 91.56 5.61L91.56 5.61L91.56 5.61Q91.38 5.59 91.40 5.43L91.40 5.43L91.40 4.96L91.40 4.96Q91.40 4.87 91.44 4.84L91.44 4.84L91.44 4.84Q91.49 4.81 91.59 4.77L91.59 4.77L91.59 4.77Q93.15 4.25 94.23 3.47L94.23 3.47L94.23 3.47Q94.27 3.45 94.29 3.45L94.29 3.45L94.32 3.45L94.32 3.45Q94.34 3.45 94.35 3.47L94.35 3.47L94.35 10.41L96.07 8.87L96.07 8.87Q96.17 8.78 96.17 8.66L96.17 8.66L96.17 8.66Q96.17 8.48 95.90 8.48L95.90 8.48L95.47 8.48L95.47 8.48Q95.39 8.48 95.33 8.43L95.33 8.43L95.33 8.43Q95.28 8.37 95.29 8.27L95.29 8.27L95.29 7.85L95.29 7.85Q95.29 7.64 95.50 7.64L95.50 7.64L98.62 7.64L98.62 7.64Q98.81 7.64 98.83 7.85L98.83 7.85L98.83 8.27L98.83 8.27Q98.83 8.48 98.64 8.48L98.64 8.48L98.47 8.48L98.47 8.48Q98.09 8.48 97.81 8.66L97.81 8.66L97.81 8.66Q97.52 8.84 96.89 9.40L96.89 9.40L95.81 10.36L98.81 13.36L98.81 13.36Q99.06 13.62 99.19 13.71L99.19 13.71L99.19 13.71Q99.33 13.80 99.46 13.80L99.46 13.80L99.51 13.80L99.51 13.80Q99.70 13.80 99.70 14.01L99.70 14.01L99.70 14.43L99.70 14.43Q99.68 14.64 99.48 14.64L99.48 14.64L96.04 14.64L96.04 14.64Q95.83 14.64 95.83 14.43L95.83 14.43L95.83 14.01L95.83 13.99L95.83 13.99Q95.83 13.90 95.88 13.85L95.88 13.85L95.88 13.85Q95.94 13.80 96.02 13.80L96.02 13.80L96.23 13.80L96.23 13.80Q96.37 13.80 96.49 13.74L96.49 13.74L96.49 13.74Q96.61 13.69 96.61 13.58L96.61 13.58L96.61 13.58Q96.61 13.49 96.50 13.38L96.50 13.38L94.64 11.39L94.36 11.65L94.36 12.47L94.36 12.47Q94.36 13.32 94.48 13.56L94.48 13.56L94.48 13.56Q94.60 13.80 95.10 13.80L95.10 13.80L95.10 13.80Q95.31 13.80 95.31 14.01L95.31 14.01L95.31 14.43L95.31 14.43Q95.31 14.64 95.10 14.64L95.10 14.64L91.37 14.64L91.37 14.64Q91.16 14.64 91.16 14.43Z"></path></g><!----><g data-v-423bf9ae="" id="185d1312-344e-4358-989b-3d13befc89fe" transform="matrix(2.8125,0,0,2.8125,-7.170000076293945,0)" stroke="none" fill="white"><path d="M2.83 18.247l26.34-9.124L2.83 0zM29.17 32V13.753L2.83 22.877z"></path></g><!----></svg>